<svg width="296" height="72" viewBox="0 0 296 72" fill="none" xmlns="http://www.w3.org/2000/svg">
<g clip-path="url(#clip0_2_20)">
<path d="M235.621 22.5569H233.856V22.5394H216.972V22.5627H215.673C211.032 22.5627 207.304 26.3484 207.304 30.932V43.6577C207.304 48.2995 211.032 52.027 215.673 52.027H216.972H223.245H233.856H235.621C240.263 52.027 244.049 48.2995 244.049 43.6577V30.932C244.049 26.3426 240.263 22.5569 235.621 22.5569ZM239.057 43.8848C239.057 45.7777 237.508 47.3269 235.615 47.3269H233.851V47.3153H216.966V47.3269H215.668C213.775 47.3269 212.284 45.7777 212.284 43.8848V30.699C212.284 28.8644 213.775 27.3152 215.668 27.3152L233.851 27.356L235.615 27.3152C237.508 27.3152 239.057 28.8644 239.057 30.699V43.8848Z" fill="#F08845"/>
<path d="M277.468 22.5569H275.703V22.5394H258.819V22.5627H257.52C252.878 22.5627 249.151 26.3484 249.151 30.932V43.6577C249.151 48.2995 252.878 52.027 257.52 52.027H258.819H265.091H275.703H277.468C282.109 52.027 285.895 48.2995 285.895 43.6577V30.932C285.895 26.3426 282.109 22.5569 277.468 22.5569ZM280.904 43.8848C280.904 45.7777 279.355 47.3269 277.462 47.3269H275.697V47.3153H258.813V47.3269H257.514C255.621 47.3269 254.13 45.7777 254.13 43.8848V30.699C254.13 28.8644 255.621 27.3152 257.514 27.3152L275.697 27.356L277.462 27.3152C279.355 27.3152 280.904 28.8644 280.904 30.699V43.8848Z" fill="#F08845"/>
<path d="M126.582 31.7532V52.0095H122.231C121.888 52.0095 121.602 51.7241 121.602 51.3805V31.4678C121.602 29.639 120.117 28.0898 118.224 28.0898H110.787C111.357 28.4334 111.818 29.0042 111.818 29.6914V52.0095H107.467C107.123 52.0095 106.838 51.7241 106.838 51.3805V28.7246C106.838 28.381 106.553 28.0956 106.209 28.0956H97.5718C97.2864 28.0956 97.0592 28.3228 97.001 28.6081V51.3805C97.001 51.7241 96.7156 52.0095 96.372 52.0095H92.0214V27.1172C92.0214 25.0554 93.6812 23.3955 95.743 23.3955H118.23C122.866 23.4014 126.582 27.1172 126.582 31.7532Z" fill="white"/>
<path d="M155.19 31.4096V50.1749C155.19 51.2058 154.386 52.0037 153.361 52.0037H152.732H150.216H139.971C135.335 52.0037 131.62 48.2821 131.62 43.6519V41.8755C131.62 37.2395 135.341 33.5237 139.971 33.5237H149.639C149.983 33.5237 150.269 33.2383 150.269 32.8947V31.462C150.269 29.6332 149.069 28.084 146.838 28.084H136.867C136.524 28.084 136.238 27.7986 136.238 27.455V23.3897H146.832C151.468 23.4014 155.19 26.2028 155.19 31.4096ZM139.966 47.1464H149.692C150.036 47.1464 150.263 46.861 150.263 46.5174V37.4201C149.977 37.9326 149.407 38.2238 148.778 38.2762H139.966C138.079 38.2762 136.588 39.7614 136.588 41.6542V43.7684C136.593 45.6554 138.079 47.1464 139.966 47.1464Z" fill="white"/>
<path d="M177.782 38.7364L184.305 52.0096H179.5C179.273 52.0096 179.04 51.8407 178.929 51.6659L173.606 40.3962C173.489 40.1691 173.32 40.0526 173.093 40.0526H171.264C171.037 40.0526 170.804 40.1691 170.752 40.3962L165.376 51.6659C165.318 51.8348 165.091 52.0096 164.806 52.0096H160.059L166.64 38.5616C166.867 38.218 167.211 37.8744 167.555 37.7055C167.153 37.4783 166.809 37.1347 166.582 36.7329L160.001 23.4014H164.922C165.149 23.4014 165.382 23.5179 165.493 23.745L170.758 34.9623C170.816 35.1312 171.043 35.2477 171.27 35.2477H173.099C173.326 35.2477 173.501 35.1312 173.612 34.9623L178.877 23.745C178.935 23.5179 179.162 23.4014 179.447 23.4014H184.369L177.788 36.6746C177.56 37.1347 177.217 37.4783 176.757 37.7055C177.205 37.9326 177.549 38.2763 177.782 38.7364Z" fill="white"/>
<path d="M202.284 47.886V52.0037H197.764C193.187 52.0037 189.413 48.2821 189.413 43.6519V14.7642H193.763C194.107 14.7642 194.392 15.0496 194.392 15.3932V24.4788C194.678 23.8498 195.307 23.448 196.052 23.448H202.115V27.5656C202.115 27.9093 201.83 28.1364 201.486 28.1364H194.392V43.8732C194.392 45.7602 195.877 47.2512 197.77 47.2512H201.661C201.999 47.257 202.284 47.5482 202.284 47.886Z" fill="white"/>
<path d="M296 14.9389V52.0096H291.649C291.306 52.0096 291.02 51.7242 291.02 51.3805V14.3099H295.371C295.715 14.3099 296 14.5953 296 14.9389Z" fill="white"/>
<path d="M35.8825 71.765C55.6998 71.765 71.765 55.6998 71.765 35.8825C71.765 16.0651 55.6998 0 35.8825 0C16.0651 0 0 16.0651 0 35.8825C0 55.6998 16.0651 71.765 35.8825 71.765Z" fill="#F08845"/>
<path d="M28.2995 25.7136H27.0822V25.6961H15.4165V25.7136H14.5196C11.3105 25.7136 8.73621 28.3286 8.73621 31.4969V40.2914C8.73621 43.5005 11.3105 46.0747 14.5196 46.0747H15.4165H19.7496H27.0822H28.2995C31.5086 46.0747 34.1236 43.5005 34.1236 40.2914V31.4969C34.1236 28.3286 31.5086 25.7136 28.2995 25.7136ZM30.6757 40.4486C30.6757 41.7532 29.6041 42.8249 28.2995 42.8249H27.0822V42.8132H15.4165V42.8249H14.5196C13.215 42.8249 12.1841 41.7532 12.1841 40.4486V31.3397C12.1841 30.07 13.215 29.0042 14.5196 29.0042L27.0822 29.0333L28.2995 29.0042C29.6041 29.0042 30.6757 30.0758 30.6757 31.3397V40.4486Z" fill="white"/>
<path d="M57.2105 25.7136H55.9932V25.6961H44.3275V25.7136H43.4306C40.2215 25.7136 37.6472 28.3286 37.6472 31.4969V40.2914C37.6472 43.5005 40.2215 46.0747 43.4306 46.0747H44.3275H48.6607H55.9932H57.2105C60.4196 46.0747 63.0346 43.5005 63.0346 40.2914V31.4969C63.0346 28.3286 60.4196 25.7136 57.2105 25.7136ZM59.5867 40.4486C59.5867 41.7532 58.5151 42.8249 57.2105 42.8249H55.9932V42.8132H44.3275V42.8249H43.4306C42.126 42.8249 41.0951 41.7532 41.0951 40.4486V31.3397C41.0951 30.07 42.126 29.0042 43.4306 29.0042L55.9932 29.0333L57.2105 29.0042C58.5151 29.0042 59.5867 30.0758 59.5867 31.3397V40.4486V40.4486Z" fill="white"/>
</g>
<defs>
<clipPath id="clip0_2_20">
<rect width="296" height="71.7708" fill="white"/>
</clipPath>
</defs>
</svg>
